<svg width="512" height="512" viewBox="0 0 512 512" fill="none" xmlns="http://www.w3.org/2000/svg" xmlns:xlink="http://www.w3.org/1999/xlink">
          <defs>
            <!-- Gradients -->
            <linearGradient id="folderGradient" x1="0" y1="0" x2="1" y2="1">
              <stop offset="0%" stop-color="#FFD454"/>
              <stop offset="100%" stop-color="#F2C037"/>
            </linearGradient>
            <linearGradient id="folderGradientDark" x1="0" y1="0" x2="1" y2="1">
              <stop offset="0%" stop-color="#E5BE4B"/>
              <stop offset="100%" stop-color="#D9AB2A"/>
            </linearGradient>
            <linearGradient id="glassGradient" x1="100" y1="100" x2="300" y2="300" gradientUnits="userSpaceOnUse">
              <stop offset="0" stop-color="white" stop-opacity="0.3"/>
              <stop offset="1" stop-color="white" stop-opacity="0.1"/>
            </linearGradient>
            
            <filter id="shadow" x="-50%" y="-50%" width="200%" height="200%">
                <feDropShadow dx="0" dy="4" stdDeviation="6" flood-color="black" flood-opacity="0.3"/>
            </filter>

            <!-- Cursor Icon Gradients -->
            <linearGradient id="cursor_paint0" x1="255.428" y1="256" x2="255.428" y2="423" gradientUnits="userSpaceOnUse">
                <stop offset=".16" stop-color="#fff" stop-opacity=".39"/>
                <stop offset=".658" stop-color="#fff" stop-opacity=".8"/>
            </linearGradient>
            <linearGradient id="cursor_paint1" x1="404.419" y1="173.015" x2="257.482" y2="261.497" gradientUnits="userSpaceOnUse">
                <stop offset=".182" stop-color="#fff" stop-opacity=".31"/>
                <stop offset=".715" stop-color="#fff" stop-opacity="0"/>
            </linearGradient>
            <linearGradient id="cursor_paint2" x1="255.428" y1="89" x2="112.292" y2="342.802" gradientUnits="userSpaceOnUse">
                <stop stop-color="#fff" stop-opacity=".6"/>
                <stop offset=".667" stop-color="#fff" stop-opacity=".22"/>
            </linearGradient>

            <!-- IntelliJ Gradients -->
             <linearGradient id="intellij_Linear2" x1="0" y1="0" x2="1" y2="0" gradientUnits="userSpaceOnUse" gradientTransform="rotate(-114.875 50.182 7.604) scale(58.92)">
                <stop offset="0" stop-color="#7256ff"/>
                <stop offset=".1" stop-color="#7256ff"/>
                <stop offset=".59" stop-color="#ff2d90"/>
                <stop offset="1" stop-color="#ff2d90"/>
            </linearGradient>
            <linearGradient id="intellij_Linear3" x1="0" y1="0" x2="1" y2="0" gradientUnits="userSpaceOnUse" gradientTransform="rotate(134.999 28.996 14.393) scale(82.868)">
                <stop offset="0" stop-color="#ff2d90"/>
                <stop offset=".21" stop-color="#ff2d90"/>
                <stop offset=".7" stop-color="#ff8200"/>
                <stop offset="1" stop-color="#ff8200"/>
            </linearGradient>

            <!-- Generic Folder Shape Symbol -->
            <symbol id="folderShape" viewBox="0 0 200 160">
                <!-- Tab -->
                <path d="M0 20 L20 0 H80 L100 20 H200 V160 H0 V20 Z" />
            </symbol>

            <!-- ICONS DEFS -->
            <symbol id="iconClaude" viewBox="0 0 512 512">
                 <path fill="#D77655" d="M115.612 0h280.775C459.974 0 512 52.026 512 115.612v278.415c0 63.587-52.026 115.612-115.613 115.612H115.612C52.026 509.639 0 457.614 0 394.027V115.612C0 52.026 52.026 0 115.612 0z"/>
                 <path fill="#FCF2EE" fill-rule="nonzero" d="M142.27 316.619l73.655-41.326 1.238-3.589-1.238-1.996-3.589-.001-12.31-.759-42.084-1.138-36.498-1.516-35.361-1.896-8.897-1.895-8.34-10.995.859-5.484 7.482-5.03 10.717.935 23.683 1.617 35.537 2.452 25.782 1.517 38.193 3.968h6.064l.86-2.451-2.073-1.517-1.618-1.517-36.776-24.922-39.81-26.338-20.852-15.166-11.273-7.683-5.687-7.204-2.451-15.721 10.237-11.273 13.75.935 3.513.936 13.928 10.716 29.749 23.027 38.848 28.612 5.687 4.727 2.275-1.617.278-1.138-2.553-4.271-21.13-38.193-22.546-38.848-10.035-16.101-2.654-9.655c-.935-3.968-1.617-7.304-1.617-11.374l11.652-15.823 6.445-2.073 15.545 2.073 6.547 5.687 9.655 22.092 15.646 34.78 24.265 47.291 7.103 14.028 3.791 12.992 1.416 3.968 2.449-.001v-2.275l1.997-26.641 3.69-32.707 3.589-42.084 1.239-11.854 5.863-14.206 11.652-7.683 9.099 4.348 7.482 10.716-1.036 6.926-4.449 28.915-8.72 45.294-5.687 30.331h3.313l3.792-3.791 15.342-20.372 25.782-32.227 11.374-12.789 13.27-14.129 8.517-6.724 16.1-.001 11.854 17.617-5.307 18.199-16.581 21.029-13.75 17.819-19.716 26.54-12.309 21.231 1.138 1.694 2.932-.278 44.536-9.479 24.062-4.347 28.714-4.928 12.992 6.066 1.416 6.167-5.106 12.613-30.71 7.583-36.018 7.204-53.636 12.689-.657.48.758.935 24.164 2.275 10.337.556h25.301l47.114 3.514 12.309 8.139 7.381 9.959-1.238 7.583-18.957 9.655-25.579-6.066-59.702-14.205-20.474-5.106-2.83-.001v1.694l17.061 16.682 31.266 28.233 39.152 36.397 1.997 8.999-5.03 7.102-5.307-.758-34.401-25.883-13.27-11.651-30.053-25.302-1.996-.001v2.654l6.926 10.136 36.574 54.975 1.895 16.859-2.653 5.485-9.479 3.311-10.414-1.895-21.408-30.054-22.092-33.844-17.819-30.331-2.173 1.238-10.515 113.261-4.929 5.788-11.374 4.348-9.478-7.204-5.03-11.652 5.03-23.027 6.066-30.052 4.928-23.886 4.449-29.674 2.654-9.858-.177-.657-2.173.278-22.37 30.71-34.021 45.977-26.919 28.815-6.445 2.553-11.173-5.789 1.037-10.337 6.243-9.2 37.257-47.392 22.47-29.371 14.508-16.961-.101-2.451h-.859l-98.954 64.251-17.618 2.275-7.583-7.103.936-11.652 3.589-3.791 29.749-20.474-.101.102.024.101z"/>
            </symbol>

            <symbol id="iconWindsurf" viewBox="0 0 512 512">
                 <path fill="#222" fill-rule="evenodd" clip-rule="evenodd" d="M507.307 106.752h-4.864a46.653 46.653 0 00-43.025 28.969 46.66 46.66 0 00-3.482 17.879v104.789c0 20.907-17.152 37.867-37.547 37.867a38.785 38.785 0 01-31.402-16.491l-106.07-152.832a46.865 46.865 0 00-38.613-20.266c-24.192 0-45.952 20.736-45.952 46.357v105.387c0 20.906-17.003 37.866-37.547 37.866-12.16 0-24.234-6.165-31.402-16.49L8.704 108.757C6.016 104.917 0 106.816 0 111.531v91.392c0 4.608 1.408 9.088 4.01 12.885l116.801 168.299c6.912 9.941 17.066 17.322 28.821 20.01 29.376 6.742 56.427-16.085 56.427-45.162V253.653c0-20.906 16.789-37.866 37.546-37.866h.043c12.501 0 24.213 6.144 31.403 16.49L381.12 385.088a45.872 45.872 0 0038.613 20.267c24.704 0 45.888-20.758 45.888-46.358V253.632c0-20.907 16.79-37.867 37.547-37.867h4.139c2.602 0 4.693-2.133 4.693-4.736v-99.562a4.7 4.7 0 00-1.366-3.34 4.705 4.705 0 00-3.327-1.396v.021z"/>
            </symbol>

            <symbol id="iconCursor" viewBox="0 0 512 512">
                 <rect width="512" height="512" rx="122" fill="#000"/>
                 <mask id="cursor_mask" style="mask-type:luminance" maskUnits="userSpaceOnUse" x="85" y="89" width="343" height="334"><path d="M85 89h343v334H85V89z" fill="#fff"/></mask>
                 <g mask="url(#cursor_mask)">
                    <path d="M255.428 423l148.991-83.5L255.428 256l-148.99 83.5 148.99 83.5z" fill="url(#cursor_paint0)"/>
                    <path d="M404.419 339.5v-167L255.428 89v167l148.991 83.5z" fill="url(#cursor_paint1)"/>
                    <path d="M255.428 89l-148.99 83.5v167l148.99-83.5V89z" fill="url(#cursor_paint2)"/>
                    <path d="M404.419 172.5L255.428 423V256l148.991-83.5z" fill="#E4E4E4"/>
                    <path d="M404.419 172.5L255.428 256l-148.99-83.5h297.981z" fill="#fff"/>
                 </g>
            </symbol>

            <symbol id="iconVSCode" viewBox="0 0 256 256">
                <path fill="#0065A9" d="M246.94,27.64l-52.75-25.4c-6.1-2.94-13.4-1.7-18.19,3.09L3.32,162.77c-4.64,4.24-4.64,11.55,0.01,15.78 l14.1,12.82c3.8,3.46,9.53,3.71,13.62,0.61L239,34.23c6.98-5.29,17-0.32,17,8.44v-0.61C256,35.91,252.48,30.3,246.94,27.64z"/>
                <path fill="#007ACC" d="M246.94,228.36l-52.75,25.4c-6.1,2.94-13.4,1.7-18.19-3.09L3.32,93.23c-4.64-4.23-4.64-11.55,0.01-15.77 l14.1-12.82c3.8-3.46,9.53-3.71,13.62-0.61L239,221.77c6.98,5.29,17,0.32,17-8.44v0.61C256,220.09,252.48,225.7,246.94,228.36z"/>
                <path fill="#1F9CF0" d="M194.2,253.76c-6.11,2.94-13.4,1.7-18.2-3.1c5.9,5.9,16,1.72,16-6.63V11.96c0-8.35-10.1-12.53-16-6.63 c4.79-4.79,12.09-6.03,18.2-3.1l52.74,25.36c5.54,2.67,9.07,8.27,9.07,14.42v171.97c0,6.15-3.52,11.75-9.07,14.42L194.2,253.76z"/>
            </symbol>
            
            <symbol id="iconIntelliJ" viewBox="0 0 90 90">
                 <path d="M63.4 77.333h16.345c3.017 0 5.5-2.483 5.5-5.5l-.001-.087-.235-14.725a5.505 5.505 0 00-1.92-4.088L32.212 9.324A5.5 5.5 0 0028.632 8H13.5C10.483 8 8 10.483 8 13.5v14.67c0 1.587.685 3.095 1.879 4.14l49.9 43.663a5.498 5.498 0 003.62 1.36z" fill="#7256ff" fill-rule="nonzero"/>
                 <path d="M49.013 58h10.862C62.138 58 64 56.138 64 53.875V41.309c0-.2-.014-.4-.044-.598L58.508 3.527A4.139 4.139 0 0054.427 0H39.029c-2.263 0-4.125 1.862-4.125 4.125v.001l.005 18.505c0 .425.066.848.195 1.253l9.979 31.246a4.135 4.135 0 003.93 2.87z" fill="url(#intellij_Linear2)" fill-rule="nonzero"/>
                 <path d="M4.125 64h34.127a4.132 4.132 0 003.8-2.52L57.85 24.057c.219-.518.33-1.076.324-1.638l-.15-18.329C58.005 1.841 56.149 0 53.9 0H36.234c-.806 0-1.593.236-2.267.678L1.86 21.787A4.128 4.128 0 000 25.234v34.641C0 62.138 1.862 64 4.125 64z" fill="url(#intellij_Linear3)" fill-rule="nonzero"/>
                 <path d="M44 58.667H22.667v4H44v-4zM26.599 41.656a9.76 9.76 0 01-3.674-3.715c-.89-1.577-1.337-3.337-1.337-5.281 0-1.944.445-3.704 1.337-5.28a9.754 9.754 0 013.674-3.716c1.557-.9 3.298-1.352 5.222-1.352 1.924 0 3.654.45 5.21 1.35a9.7 9.7 0 013.666 3.717c.886 1.577 1.33 3.337 1.33 5.28 0 1.945-.444 3.705-1.33 5.28a9.713 9.713 0 01-3.666 3.718c-1.558.9-3.294 1.35-5.21 1.35-1.914 0-3.665-.45-5.222-1.35v-.001zm8.41-2.972c.943-.595 1.682-1.42 2.215-2.472.533-1.053.8-2.237.8-3.552s-.267-2.499-.8-3.552a6.143 6.143 0 00-2.215-2.472c-.944-.595-2.005-.893-3.186-.893-1.182 0-2.246.297-3.195.893a6.173 6.173 0 00-2.228 2.47c-.537 1.054-.807 2.238-.807 3.553 0 1.314.27 2.498.807 3.552.539 1.053 1.283 1.877 2.23 2.472.949.596 2.013.893 3.194.893s2.244-.297 3.187-.893h-.002zm-2.88 8.045a3.55 3.55 0 01-1.5-1.436c-.348-.618-.521-1.348-.521-2.186l-.013-2.587h3.657v2.415c0 .294.057.55.172.764.108.21.281.38.493.486.214.11.468.164.764.164h2.444v2.887h-3.214c-.868 0-1.627-.17-2.28-.507h-.002zm13.314-24.073h7.617c1.896 0 3.595.428 5.095 1.287a9.173 9.173 0 013.522 3.565c.848 1.52 1.272 3.236 1.272 5.152s-.424 3.633-1.272 5.153a9.19 9.19 0 01-3.522 3.566c-1.5.857-3.2 1.285-5.094 1.285h-7.618V22.656zM56.148 38.49c.896-.534 1.587-1.298 2.072-2.294.485-.996.73-2.173.73-3.537 0-1.364-.245-2.543-.73-3.537-.485-.996-1.176-1.76-2.072-2.295-.896-.533-1.94-.8-3.13-.8h-3.674V39.29h3.673c1.19 0 2.235-.267 3.13-.8z" fill="#fff" fill-rule="nonzero"/>
            </symbol>
          </defs>

          <!-- CHAOTIC FOLDER STACK -->
          
          <!-- Folder 1: Claude (Top Left) -->
          <g transform="translate(50, 40) rotate(-15)">
             <use xlink:href="#folderShape" width="220" height="180" fill="url(#folderGradientDark)" />
             <use xlink:href="#iconClaude" x="60" y="50" width="100" height="100" />
          </g>

          <!-- Folder 2: Windsurf (Top Right) -->
          <g transform="translate(280, 20) rotate(10)">
             <use xlink:href="#folderShape" width="220" height="180" fill="url(#folderGradient)" />
             <use xlink:href="#iconWindsurf" x="60" y="50" width="100" height="100" />
          </g>

          <!-- Folder 3: IntelliJ (Bottom Right) -->
          <g transform="translate(260, 200) rotate(-5)">
             <use xlink:href="#folderShape" width="220" height="180" fill="url(#folderGradientDark)" />
             <use xlink:href="#iconIntelliJ" x="60" y="50" width="100" height="100" />
          </g>

          <!-- Folder 4: Cursor (Bottom Left) -->
          <g transform="translate(20, 220) rotate(5)">
             <use xlink:href="#folderShape" width="220" height="180" fill="url(#folderGradient)" />
             <use xlink:href="#iconCursor" x="60" y="50" width="100" height="100" />
          </g>

          <!-- Folder 5: VS Code (Center Front) -->
          <g transform="translate(140, 120) rotate(0)">
             <use xlink:href="#folderShape" width="240" height="200" fill="url(#folderGradient)" />
             <use xlink:href="#iconVSCode" x="60" y="50" width="120" height="120" />
          </g>

          <!-- LENS ASSEMBLY -->
          <g>
            <!-- Handle -->
            <rect x="290" y="290" width="40" height="160" rx="20" transform="rotate(-45 310 370)" fill="#333333"/>
            <!-- Lens Rim -->
            <circle cx="230" cy="230" r="110" stroke="#444444" stroke-width="20" fill="none"/>
            <!-- Lens Glass -->
            <circle cx="230" cy="230" r="110" fill="url(#glassGradient)"/>
            <!-- Reflection -->
            <path d="M180 180 Q 230 140 280 180" stroke="white" stroke-width="10" stroke-linecap="round" stroke-opacity="0.4" fill="none"/>
          </g>

        </svg>